<svg xmlns="http://www.w3.org/2000/svg" viewBox="0 0 1200 630" width="1200" height="630">
  <defs>
    <linearGradient id="bg" x1="0" y1="0" x2="1" y2="1">
      <stop offset="0%" stop-color="#f0f9ff"/>
      <stop offset="100%" stop-color="#e0f2fe"/>
    </linearGradient>
    <linearGradient id="accent" x1="0" y1="0" x2="1" y2="1">
      <stop offset="0%" stop-color="#06b6d4"/>
      <stop offset="100%" stop-color="#0ea5e9"/>
    </linearGradient>
  </defs>
  <rect width="1200" height="630" fill="url(#bg)"/>
  <circle cx="1050" cy="120" r="180" fill="#bae6fd" opacity="0.5"/>
  <circle cx="120" cy="540" r="140" fill="#a5f3fc" opacity="0.5"/>

  <g transform="translate(80,160)">
    <rect width="96" height="96" rx="22" fill="url(#accent)"/>
    <path d="M82 48 H64 L54 76 L42 20 L32 48 H14"
          fill="none" stroke="#ffffff" stroke-width="6.5"
          stroke-linecap="round" stroke-linejoin="round"
          transform="translate(0,0)"/>
  </g>

  <text x="80" y="340" font-family="'Space Grotesk', 'Inter', sans-serif"
        font-size="64" font-weight="700" fill="#0f172a">
    AI Digital Health Assistant
  </text>
  <text x="80" y="400" font-family="Inter, sans-serif"
        font-size="30" fill="#334155">
    Free symptom checker &amp; lab-report analyzer
  </text>

  <g transform="translate(80,470)" font-family="Inter, sans-serif" font-size="22" fill="#0284c7" font-weight="600">
    <rect x="0" y="0" rx="999" ry="999" width="220" height="48" fill="#ffffff" stroke="#bae6fd" stroke-width="2"/>
    <text x="28" y="31">⚡ Symptom analysis</text>

    <rect x="244" y="0" rx="999" ry="999" width="240" height="48" fill="#ffffff" stroke="#bae6fd" stroke-width="2"/>
    <text x="272" y="31">📄 PDF report decoding</text>

    <rect x="508" y="0" rx="999" ry="999" width="210" height="48" fill="#ffffff" stroke="#bae6fd" stroke-width="2"/>
    <text x="536" y="31">💬 Follow-up chat</text>
  </g>
</svg>
